{"accessors" : [{"bufferView" : 0, "byteOffset" : 0, "componentType" : 5123, "count" : 342, "type" : "SCALAR", "max" : [105], "min" : [0]}, {"bufferView" : 1, "byteOffset" : 0, "componentType" : 5126, "count" : 106, "type" : "VEC3", "max" : [7.553060054779053, 153.8391571044922, 11.602975845336914], "min" : [-7.421298027038574, 150.8179168701172, 8.71382999420166], "name" : "POSITION"}, {"bufferView" : 1, "byteOffset" : 12, "componentType" : 5126, "count" : 106, "type" : "VEC3", "max" : [0.7245182991027832, 0.884415864944458, 0.8103074431419373], "min" : [-0.7043592929840088, -0.997333288192749, -0.03922916576266289], "name" : "NORMAL"}, {"bufferView" : 1, "byteOffset" : 24, "componentType" : 5126, "count" : 106, "type" : "VEC2", "max" : [0.596340000629425, 0.397350013256073], "min" : [0.5035799741744995, 0.3038399815559387], "name" : "TEXCOORD_0"}, {"bufferView" : 0, "byteOffset" : 684, "componentType" : 5123, "count" : 4560, "type" : "SCALAR", "max" : [803], "min" : [0]}, {"bufferView" : 4, "byteOffset" : 0, "componentType" : 5126, "count" : 804, "type" : "VEC3", "max" : [6.244217872619629, 155.18325805664062, 9.778426170349121], "min" : [-6.244193077087402, 150.41795349121094, 5.070387840270996], "name" : "POSITION"}, {"bufferView" : 4, "byteOffset" : 12, "componentType" : 5126, "count" : 804, "type" : "VEC3", "max" : [0.9991593956947327, 0.9991853833198547, 0.9937464594841003], "min" : [-0.9991604685783386, -0.9991859793663025, -0.999423623085022], "name" : "NORMAL"}, {"bufferView" : 4, "byteOffset" : 24, "componentType" : 5126, "count" : 804, "type" : "VEC2", "max" : [0.5983250141143799, 0.296081006526947], "min" : [0.501675009727478, 0.0017020106315612793], "name" : "TEXCOORD_0"}, {"bufferView" : 0, "byteOffset" : 9804, "componentType" : 5123, "count" : 49542, "type" : "SCALAR", "max" : [9364], "min" : [0]}, {"bufferView" : 5, "byteOffset" : 0, "componentType" : 5126, "count" : 9365, "type" : "VEC3", "max" : [76.33446502685547, 165.42776489257812, 12.660239219665527], "min" : [-76.3362808227539, 4.324246883392334, -11.785957336425781], "name" : "POSITION"}, {"bufferView" : 5, "byteOffset" : 12, "componentType" : 5126, "count" : 9365, "type" : "VEC3", "max" : [0.9998852610588074, 0.9999943971633911, 0.9999154806137085], "min" : [-0.9996533989906311, -0.9999945759773254, -0.9992474913597107], "name" : "NORMAL"}, {"bufferView" : 5, "byteOffset" : 24, "componentType" : 5126, "count" : 9365, "type" : "VEC2", "max" : [0.9924700260162354, 0.6754109859466553], "min" : [0.004989999812096357, 0.0021439790725708008], "name" : "TEXCOORD_0"}, {"bufferView" : 0, "byteOffset" : 108888, "componentType" : 5123, "count" : 7236, "type" : "SCALAR", "max" : [1565], "min" : [0]}, {"bufferView" : 6, "byteOffset" : 0, "componentType" : 5126, "count" : 1566, "type" : "VEC3", "max" : [72.23493194580078, 133.2664031982422, -0.10498599708080292], "min" : [-72.23698425292969, 127.15547180175781, -9.45665454864502], "name" : "POSITION"}, {"bufferView" : 6, "byteOffset" : 12, "componentType" : 5126, "count" : 1566, "type" : "VEC3", "max" : [0.9923660159111023, 0.9996662735939026, 0.9999136924743652], "min" : [-0.9923465847969055, -0.9999486207962036, -0.9999907612800598], "name" : "NORMAL"}, {"bufferView" : 6, "byteOffset" : 24, "componentType" : 5126, "count" : 1566, "type" : "VEC2", "max" : [0.9947509765625, 0.9910169839859009], "min" : [0.005317999981343746, 0.010061025619506836], "name" : "TEXCOORD_0"}, {"bufferView" : 0, "byteOffset" : 123360, "componentType" : 5123, "count" : 11970, "type" : "SCALAR", "max" : [3320], "min" : [0]}, {"bufferView" : 9, "byteOffset" : 0, "componentType" : 5126, "count" : 3321, "type" : "VEC3", "max" : [12.024645805358887, 167.43243408203125, 14.213542938232422], "min" : [-12.82513427734375, 130.3162078857422, -10.321688652038574], "name" : "POSITION"}, {"bufferView" : 9, "byteOffset" : 12, "componentType" : 5126, "count" : 3321, "type" : "VEC3", "max" : [0.9998151659965515, 0.9996034502983093, 0.9992861151695251], "min" : [-0.9999248385429382, -0.814087450504303, -0.9997443556785583], "name" : "NORMAL"}, {"bufferView" : 9, "byteOffset" : 24, "componentType" : 5126, "count" : 3321, "type" : "VEC2", "max" : [0.9656429886817932, 0.9972320199012756], "min" : [0.01118599995970726, 0.0022829771041870117], "name" : "TEXCOORD_0"}, {"bufferView" : 0, "byteOffset" : 147300, "componentType" : 5123, "count" : 17562, "type" : "SCALAR", "max" : [3212], "min" : [0]}, {"bufferView" : 12, "byteOffset" : 0, "componentType" : 5126, "count" : 3213, "type" : "VEC3", "max" : [48.6033935546875, 137.13394165039062, 12.407402992248535], "min" : [-46.02468490600586, 84.36203002929688, -13.071832656860352], "name" : "POSITION"}, {"bufferView" : 12, "byteOffset" : 12, "componentType" : 5126, "count" : 3213, "type" : "VEC3", "max" : [0.9997275471687317, 0.9999143481254578, 0.999945342540741], "min" : [-0.998539924621582, -0.9999593496322632, -0.9998795986175537], "name" : "NORMAL"}, {"bufferView" : 12, "byteOffset" : 24, "componentType" : 5126, "count" : 3213, "type" : "VEC2", "max" : [0.989982008934021, 0.9828069806098938], "min" : [0.026558000594377518, 0.008175015449523926], "name" : "TEXCOORD_0"}, {"bufferView" : 0, "byteOffset" : 182424, "componentType" : 5123, "count" : 20856, "type" : "SCALAR", "max" : [4095], "min" : [0]}, {"bufferView" : 15, "byteOffset" : 0, "componentType" : 5126, "count" : 4096, "type" : "VEC3", "max" : [11.403520584106445, 10.244157791137695, 10.02350902557373], "min" : [-11.393003463745117, -9.744644202669406E-09, -13.18234634399414], "name" : "POSITION"}, {"bufferView" : 15, "byteOffset" : 12, "componentType" : 5126, "count" : 4096, "type" : "VEC3", "max" : [0.9998637437820435, 0.9996131658554077, 0.9999639987945557], "min" : [-0.999868631362915, -0.999592661857605, -0.997918963432312], "name" : "NORMAL"}, {"bufferView" : 15, "byteOffset" : 24, "componentType" : 5126, "count" : 4096, "type" : "VEC2", "max" : [0.991873025894165, 0.9955250024795532], "min" : [0.0033579999580979347, 0.007448017597198486], "name" : "TEXCOORD_0"}, {"bufferView" : 0, "byteOffset" : 224136, "componentType" : 5123, "count" : 12012, "type" : "SCALAR", "max" : [2260], "min" : [0]}, {"bufferView" : 18, "byteOffset" : 0, "componentType" : 5126, "count" : 2261, "type" : "VEC3", "max" : [16.22550392150879, 99.67958068847656, 10.977371215820312], "min" : [-16.14255142211914, 3.1574339866638184, -13.13473892211914], "name" : "POSITION"}, {"bufferView" : 18, "byteOffset" : 12, "componentType" : 5126, "count" : 2261, "type" : "VEC3", "max" : [0.9999340176582336, 0.990272581577301, 0.9998941421508789], "min" : [-0.9999663829803467, -0.9928125143051147, -0.9998051524162292], "name" : "NORMAL"}, {"bufferView" : 18, "byteOffset" : 24, "componentType" : 5126, "count" : 2261, "type" : "VEC2", "max" : [0.9966930150985718, 0.9960049986839294], "min" : [0.012606999836862087, 0.007651984691619873], "name" : "TEXCOORD_0"}, {"bufferView" : 21, "byteOffset" : 0, "componentType" : 5126, "normalized" : false, "count" : 89, "type" : "SCALAR", "max" : [2.9333333333333336], "min" : [0]}, {"bufferView" : 21, "byteOffset" : 356, "componentType" : 5126, "normalized" : false, "count" : 89, "type" : "VEC3", "max" : [-1.193892002105713, 98.52462005615234, 4.919290542602539], "min" : [-2.856156826019287, 97.51333618164062, 2.2637903690338135]}], "animations" : [{"channels" : [{"sampler" : 0, "target" : {"node" : -1, "path" : "translation"}}], "samplers" : [{"input" : 32, "interpolation" : "CUBICSPLINE", "output" : 33}], "name" : "mixamo.com"}], "asset" : {"generator" : "Aspose.3D 24.2.0", "version" : "2.0"}, "buffers" : [{"uri" : "buffer.bin", "byteLength" : 5953380}], "bufferViews" : [{"buffer" : 0, "byteOffset" : 0, "byteLength" : 248160, "target" : 34963}, {"buffer" : 0, "byteOffset" : 248164, "byteLength" : 3392, "byteStride" : 32, "target" : 34962}, {"buffer" : 0, "byteOffset" : 251560, "byteLength" : 782427}, {"buffer" : 0, "byteOffset" : 1033988, "byteLength" : 842920}, {"buffer" : 0, "byteOffset" : 1876912, "byteLength" : 25728, "byteStride" : 32, "target" : 34962}, {"buffer" : 0, "byteOffset" : 1902644, "byteLength" : 299680, "byteStride" : 32, "target" : 34962}, {"buffer" : 0, "byteOffset" : 2202328, "byteLength" : 50112, "byteStride" : 32, "target" : 34962}, {"buffer" : 0, "byteOffset" : 2252444, "byteLength" : 483610}, {"buffer" : 0, "byteOffset" : 2736056, "byteLength" : 406893}, {"buffer" : 0, "byteOffset" : 3142952, "byteLength" : 106272, "byteStride" : 32, "target" : 34962}, {"buffer" : 0, "byteOffset" : 3249228, "byteLength" : 159450}, {"buffer" : 0, "byteOffset" : 3408680, "byteLength" : 146587}, {"buffer" : 0, "byteOffset" : 3555268, "byteLength" : 102816, "byteStride" : 32, "target" : 34962}, {"buffer" : 0, "byteOffset" : 3658088, "byteLength" : 359847}, {"buffer" : 0, "byteOffset" : 4017936, "byteLength" : 212454}, {"buffer" : 0, "byteOffset" : 4230392, "byteLength" : 131072, "byteStride" : 32, "target" : 34962}, {"buffer" : 0, "byteOffset" : 4361468, "byteLength" : 455818}, {"buffer" : 0, "byteOffset" : 4817288, "byteLength" : 295474}, {"buffer" : 0, "byteOffset" : 5112764, "byteLength" : 72352, "byteStride" : 32, "target" : 34962}, {"buffer" : 0, "byteOffset" : 5185120, "byteLength" : 424348}, {"buffer" : 0, "byteOffset" : 5609472, "byteLength" : 342479}, {"buffer" : 0, "byteOffset" : 5951952, "byteLength" : 1424}], "images" : [{"mimeType" : "image/png", "bufferView" : 2}, {"mimeType" : "image/png", "bufferView" : 3}, {"mimeType" : "image/png", "bufferView" : 7}, {"mimeType" : "image/png", "bufferView" : 8}, {"mimeType" : "image/png", "bufferView" : 10}, {"mimeType" : "image/png", "bufferView" : 11}, {"mimeType" : "image/png", "bufferView" : 13}, {"mimeType" : "image/png", "bufferView" : 14}, {"mimeType" : "image/png", "bufferView" : 16}, {"mimeType" : "image/png", "bufferView" : 17}, {"mimeType" : "image/png", "bufferView" : 19}, {"mimeType" : "image/png", "bufferView" : 20}], "materials" : [{"name" : "Bodymat", "pbrMetallicRoughness" : {"baseColorFactor" : [1, 1, 1, 1], "baseColorTexture" : {"index" : 1, "texCoord" : 0}, "metallicFactor" : 1, "roughnessFactor" : 1}, "normalTexture" : {"index" : 0, "texCoord" : 0, "scale" : 1}, "emissiveFactor" : [0, 0, 0], "alphaMode" : "OPAQUE", "doubleSided" : false}, {"name" : "Bodymat", "pbrMetallicRoughness" : {"baseColorFactor" : [1, 1, 1, 1], "baseColorTexture" : {"index" : 1, "texCoord" : 0}, "metallicFactor" : 1, "roughnessFactor" : 1}, "normalTexture" : {"index" : 0, "texCoord" : 0, "scale" : 1}, "emissiveFactor" : [0, 0, 0], "alphaMode" : "OPAQUE", "doubleSided" : false}, {"name" : "Bodymat", "pbrMetallicRoughness" : {"baseColorFactor" : [1, 1, 1, 1], "baseColorTexture" : {"index" : 1, "texCoord" : 0}, "metallicFactor" : 1, "roughnessFactor" : 1}, "normalTexture" : {"index" : 0, "texCoord" : 0, "scale" : 1}, "emissiveFactor" : [0, 0, 0], "alphaMode" : "OPAQUE", "doubleSided" : false}, {"name" : "Glovemat", "pbrMetallicRoughness" : {"baseColorFactor" : [1, 1, 1, 1], "baseColorTexture" : {"index" : 3, "texCoord" : 0}, "metallicFactor" : 1, "roughnessFactor" : 1}, "normalTexture" : {"index" : 2, "texCoord" : 0, "scale" : 1}, "emissiveFactor" : [0, 0, 0], "alphaMode" : "OPAQUE", "doubleSided" : false}, {"name" : "Hairmat", "pbrMetallicRoughness" : {"baseColorFactor" : [1, 1, 1, 1], "baseColorTexture" : {"index" : 5, "texCoord" : 0}, "metallicFactor" : 1, "roughnessFactor" : 1}, "normalTexture" : {"index" : 4, "texCoord" : 0, "scale" : 1}, "emissiveFactor" : [0, 0, 0], "alphaMode" : "OPAQUE", "doubleSided" : false}, {"name" : "Topmat", "pbrMetallicRoughness" : {"baseColorFactor" : [1, 1, 1, 1], "baseColorTexture" : {"index" : 7, "texCoord" : 0}, "metallicFactor" : 1, "roughnessFactor" : 1}, "normalTexture" : {"index" : 6, "texCoord" : 0, "scale" : 1}, "emissiveFactor" : [0, 0, 0], "alphaMode" : "OPAQUE", "doubleSided" : false}, {"name" : "Shoesmat", "pbrMetallicRoughness" : {"baseColorFactor" : [1, 1, 1, 1], "baseColorTexture" : {"index" : 9, "texCoord" : 0}, "metallicFactor" : 1, "roughnessFactor" : 1}, "normalTexture" : {"index" : 8, "texCoord" : 0, "scale" : 1}, "emissiveFactor" : [0, 0, 0], "alphaMode" : "OPAQUE", "doubleSided" : false}, {"name" : "Bottommat", "pbrMetallicRoughness" : {"baseColorFactor" : [1, 1, 1, 1], "baseColorTexture" : {"index" : 11, "texCoord" : 0}, "metallicFactor" : 1, "roughnessFactor" : 1}, "normalTexture" : {"index" : 10, "texCoord" : 0, "scale" : 1}, "emissiveFactor" : [0, 0, 0], "alphaMode" : "OPAQUE", "doubleSided" : false}], "meshes" : [{"primitives" : [{"attributes" : {"POSITION" : 1, "NORMAL" : 2, "TEXCOORD_0" : 3}, "indices" : 0, "material" : 0, "mode" : 4}], "name" : "Eyelashesmesh"}, {"primitives" : [{"attributes" : {"POSITION" : 5, "NORMAL" : 6, "TEXCOORD_0" : 7}, "indices" : 4, "material" : 1, "mode" : 4}], "name" : "defaultmesh"}, {"primitives" : [{"attributes" : {"POSITION" : 9, "NORMAL" : 10, "TEXCOORD_0" : 11}, "indices" : 8, "material" : 2, "mode" : 4}], "name" : "Bodymesh"}, {"primitives" : [{"attributes" : {"POSITION" : 13, "NORMAL" : 14, "TEXCOORD_0" : 15}, "indices" : 12, "material" : 3, "mode" : 4}], "name" : "Glovesmesh"}, {"primitives" : [{"attributes" : {"POSITION" : 17, "NORMAL" : 18, "TEXCOORD_0" : 19}, "indices" : 16, "material" : 4, "mode" : 4}], "name" : "Hairmesh"}, {"primitives" : [{"attributes" : {"POSITION" : 21, "NORMAL" : 22, "TEXCOORD_0" : 23}, "indices" : 20, "material" : 5, "mode" : 4}], "name" : "Topsmesh"}, {"primitives" : [{"attributes" : {"POSITION" : 25, "NORMAL" : 26, "TEXCOORD_0" : 27}, "indices" : 24, "material" : 6, "mode" : 4}], "name" : "Shoesmesh"}, {"primitives" : [{"attributes" : {"POSITION" : 29, "NORMAL" : 30, "TEXCOORD_0" : 31}, "indices" : 28, "material" : 7, "mode" : 4}], "name" : "Bottomsmesh"}], "nodes" : [{"mesh" : 0, "name" : "Eyelashes"}, {"mesh" : 1, "name" : "default"}, {"mesh" : 2, "name" : "Body"}, {"mesh" : 3, "name" : "Gloves"}, {"mesh" : 4, "name" : "Hair"}, {"mesh" : 5, "name" : "Tops"}, {"mesh" : 6, "name" : "Shoes"}, {"mesh" : 7, "name" : "Bottoms"}], "samplers" : [{"magFilter" : 9729, "minFilter" : 9729, "wrapS" : 10497, "wrapT" : 10497}, {"magFilter" : 9729, "minFilter" : 9729, "wrapS" : 10497, "wrapT" : 10497}, {"magFilter" : 9729, "minFilter" : 9729, "wrapS" : 10497, "wrapT" : 10497}, {"magFilter" : 9729, "minFilter" : 9729, "wrapS" : 10497, "wrapT" : 10497}, {"magFilter" : 9729, "minFilter" : 9729, "wrapS" : 10497, "wrapT" : 10497}, {"magFilter" : 9729, "minFilter" : 9729, "wrapS" : 10497, "wrapT" : 10497}, {"magFilter" : 9729, "minFilter" : 9729, "wrapS" : 10497, "wrapT" : 10497}, {"magFilter" : 9729, "minFilter" : 9729, "wrapS" : 10497, "wrapT" : 10497}, {"magFilter" : 9729, "minFilter" : 9729, "wrapS" : 10497, "wrapT" : 10497}, {"magFilter" : 9729, "minFilter" : 9729, "wrapS" : 10497, "wrapT" : 10497}, {"magFilter" : 9729, "minFilter" : 9729, "wrapS" : 10497, "wrapT" : 10497}, {"magFilter" : 9729, "minFilter" : 9729, "wrapS" : 10497, "wrapT" : 10497}], "scene" : 0, "scenes" : [{"nodes" : [0, 1, 2, 3, 4, 5, 6, 7]}], "textures" : [{"sampler" : 0, "source" : 0, "name" : "Rocker_Girl_Body_Normal"}, {"sampler" : 1, "source" : 1, "name" : "Rocker_Girl_Body_Diffuse"}, {"sampler" : 2, "source" : 2, "name" : "Rocker_Girl_Glove_Normal"}, {"sampler" : 3, "source" : 3, "name" : "Rocker_Girl_Glove_Diffuse"}, {"sampler" : 4, "source" : 4, "name" : "Rocker_Girl_Hair_Normal"}, {"sampler" : 5, "source" : 5, "name" : "Rocker_Girl_Hair_Diffuse"}, {"sampler" : 6, "source" : 6, "name" : "Rocker_Girl_Top_Normal"}, {"sampler" : 7, "source" : 7, "name" : "Rocker_Girl_Top_Diffuse"}, {"sampler" : 8, "source" : 8, "name" : "Rocker_Girl_Shoes_Normal"}, {"sampler" : 9, "source" : 9, "name" : "Rocker_Girl_Shoes_Diffuse"}, {"sampler" : 10, "source" : 10, "name" : "Rocker_Girl_Bottom_Normal"}, {"sampler" : 11, "source" : 11, "name" : "Rocker_Girl_Bottom_Diffuse"}]}