{"accessors" : [{"bufferView" : 0, "byteOffset" : 0, "componentType" : 5126, "normalized" : false, "count" : 67, "type" : "SCALAR", "max" : [2.2], "min" : [0]}, {"bufferView" : 0, "byteOffset" : 268, "componentType" : 5126, "normalized" : false, "count" : 67, "type" : "VEC3", "max" : [1.0376629829406738, 81.42562866210938, 3.144275426864624], "min" : [-17.083358764648438, 14.603105545043945, -63.607486724853516]}], "animations" : [{"channels" : [{"sampler" : 0, "target" : {"node" : -1, "path" : "translation"}}], "samplers" : [{"input" : 0, "interpolation" : "CUBICSPLINE", "output" : 1}], "name" : "mixamo.com"}], "asset" : {"generator" : "Aspose.3D 24.2.0", "version" : "2.0"}, "buffers" : [{"uri" : "buffer.bin", "byteLength" : 1076}], "bufferViews" : [{"buffer" : 0, "byteOffset" : 0, "byteLength" : 1072}], "scene" : 0, "scenes" : [{}]}