{"accessors" : [{"bufferView" : 0, "byteOffset" : 0, "componentType" : 5123, "count" : 3624, "type" : "SCALAR", "max" : [3623], "min" : [0]}, {"bufferView" : 1, "byteOffset" : 0, "componentType" : 5126, "count" : 3624, "type" : "VEC3", "max" : [-140.6134033203125, 29.175800323486328, 589.5297241210938], "min" : [-373.3089904785156, -0.03759999945759773, -585.7650146484375], "name" : "POSITION"}, {"bufferView" : 1, "byteOffset" : 12, "componentType" : 5126, "count" : 3624, "type" : "VEC3", "max" : [0.9933866858482361, 1.0000042915344238, 0.9965369701385498], "min" : [-0.9933961629867554, -1.0000042915344238, -0.9965369701385498], "name" : "NORMAL"}, {"bufferView" : 1, "byteOffset" : 24, "componentType" : 5126, "count" : 3624, "type" : "VEC4", "max" : [1.0000044107437134, 0.9997422099113464, 0.9823588728904724, 1], "min" : [-0.8688838481903076, -0.520656406879425, -0.9825141429901123, -1], "name" : "TANGENT"}, {"bufferView" : 1, "byteOffset" : 40, "componentType" : 5126, "count" : 3624, "type" : "VEC2", "max" : [0.9897000193595886, 0.9897000193595886], "min" : [0.5608000159263611, 0.003099977970123291], "name" : "TEXCOORD_0"}], "asset" : {"generator" : "Aspose.3D 24.2.0", "version" : "2.0"}, "buffers" : [{"uri" : "buffer.bin", "byteLength" : 341256}], "bufferViews" : [{"buffer" : 0, "byteOffset" : 0, "byteLength" : 7248, "target" : 34963}, {"buffer" : 0, "byteOffset" : 7252, "byteLength" : 173952, "byteStride" : 48, "target" : 34962}, {"buffer" : 0, "byteOffset" : 181208, "byteLength" : 160044}], "images" : [{"mimeType" : "image/jpeg", "bufferView" : 2}], "materials" : [{"name" : "snowboardTex", "pbrMetallicRoughness" : {"baseColorFactor" : [1, 1, 1, 1], "baseColorTexture" : {"index" : 0, "texCoord" : 0}, "metallicFactor" : 1, "roughnessFactor" : 1}, "emissiveFactor" : [0, 0, 0], "alphaMode" : "OPAQUE", "doubleSided" : false}], "meshes" : [{"primitives" : [{"attributes" : {"POSITION" : 1, "NORMAL" : 2, "TANGENT" : 3, "TEXCOORD_0" : 4}, "indices" : 0, "material" : 0, "mode" : 4}], "name" : ""}], "nodes" : [{"matrix" : [0.05, 0, 0, 0, 0, 3.061616997868383E-18, -0.05, 0, 0, 0.05, 3.061616997868383E-18, 0, 12.861706101801046, -1.5734336298728547E-15, -2.4467124428354497E-29, 1], "mesh" : 0, "name" : "snowboard:snowboard"}], "samplers" : [{"magFilter" : 9729, "minFilter" : 9729, "wrapS" : 10497, "wrapT" : 10497}], "scene" : 0, "scenes" : [{"nodes" : [0]}], "textures" : [{"sampler" : 0, "source" : 0, "name" : "file1"}]}