{"accessors" : [{"bufferView" : 0, "byteOffset" : 0, "componentType" : 5123, "count" : 690, "type" : "SCALAR", "max" : [689], "min" : [0]}, {"bufferView" : 1, "byteOffset" : 0, "componentType" : 5126, "count" : 690, "type" : "VEC3", "max" : [1.1431430578231812, 3.227034091949463, 1.15625], "min" : [-1.1624610424041748, -1.1181789636611938, -1.119850993156433], "name" : "POSITION"}, {"bufferView" : 1, "byteOffset" : 12, "componentType" : 5126, "count" : 690, "type" : "VEC3", "max" : [0.9536534547805786, 1.0000042915344238, 0.9479156732559204], "min" : [-0.9326897859573364, -0.9991399049758911, -0.8896114230155945], "name" : "NORMAL"}, {"bufferView" : 0, "byteOffset" : 1380, "componentType" : 5123, "count" : 150, "type" : "SCALAR", "max" : [149], "min" : [0]}, {"bufferView" : 2, "byteOffset" : 0, "componentType" : 5126, "count" : 150, "type" : "VEC3", "max" : [0.36406001448631287, -0.7201610207557678, 0.38121798634529114], "min" : [-0.4018310010433197, -1.8956069946289062, -0.3730370104312897], "name" : "POSITION"}, {"bufferView" : 2, "byteOffset" : 12, "componentType" : 5126, "count" : 150, "type" : "VEC3", "max" : [0.9706032276153564, 1.0000042915344238, 0.9855698347091675], "min" : [-0.9706032276153564, -1.0000042915344238, -0.9261225461959839], "name" : "NORMAL"}], "asset" : {"generator" : "Aspose.3D 24.2.0", "version" : "2.0"}, "buffers" : [{"uri" : "buffer.bin", "byteLength" : 21852}], "bufferViews" : [{"buffer" : 0, "byteOffset" : 0, "byteLength" : 1680, "target" : 34963}, {"buffer" : 0, "byteOffset" : 1684, "byteLength" : 16560, "byteStride" : 24, "target" : 34962}, {"buffer" : 0, "byteOffset" : 18248, "byteLength" : 3600, "byteStride" : 24, "target" : 34962}], "materials" : [{"name" : "lowpolytree:Leaves1", "pbrMetallicRoughness" : {"baseColorFactor" : [0.029850000515580177, 0.10629100352525711, 0.017666000872850418, 1], "metallicFactor" : 1, "roughnessFactor" : 1}, "emissiveFactor" : [0, 0, 0], "alphaMode" : "OPAQUE", "doubleSided" : false}, {"name" : "lowpolytree:Bark1", "pbrMetallicRoughness" : {"baseColorFactor" : [0.17620599269866943, 0.051816001534461975, 0.016054999083280563, 1], "metallicFactor" : 1, "roughnessFactor" : 1}, "emissiveFactor" : [0, 0, 0], "alphaMode" : "OPAQUE", "doubleSided" : false}], "meshes" : [{"primitives" : [{"attributes" : {"POSITION" : 1, "NORMAL" : 2}, "indices" : 0, "material" : 0, "mode" : 4}, {"attributes" : {"POSITION" : 4, "NORMAL" : 5}, "indices" : 3, "material" : 1, "mode" : 4}], "name" : ""}], "nodes" : [{"matrix" : [25, 0, 0, 0, 0, 25, -5.551115123125783E-15, 0, 0, 5.551115123125783E-15, 25, 0, 0, 47.292889428592225, 0, 1], "mesh" : 0, "name" : "lowpolytree1"}], "scene" : 0, "scenes" : [{"nodes" : [0]}]}